<mxfile host="app.diagrams.net" modified="2022-03-06T05:23:12.884Z" agent="5.0 (Windows NT 10.0; Win64; x64) AppleWebKit/537.36 (KHTML, like Gecko) Chrome/98.0.4758.102 Safari/537.36 OPR/84.0.4316.21" etag="svUbfDVdtW5LBkc9Hr90" version="16.6.6" type="github">
  <diagram id="jjgfoXsm136PmNPmO6G6" name="Page-1">
    <mxGraphModel dx="740" dy="752" grid="1" gridSize="10" guides="1" tooltips="1" connect="1" arrows="1" fold="1" page="1" pageScale="1" pageWidth="827" pageHeight="1169" math="0" shadow="0">
      <root>
        <mxCell id="0" />
        <mxCell id="1" parent="0" />
        <mxCell id="Y47buEA7vqfz4hFLupwD-2" value="adress" style="swimlane;" vertex="1" parent="1">
          <mxGeometry x="80" y="120" width="200" height="110" as="geometry" />
        </mxCell>
        <mxCell id="Y47buEA7vqfz4hFLupwD-5" value="city: varchar(255)" style="text;html=1;align=center;verticalAlign=middle;resizable=0;points=[];autosize=1;strokeColor=none;fillColor=none;" vertex="1" parent="Y47buEA7vqfz4hFLupwD-2">
          <mxGeometry x="45" y="80" width="110" height="20" as="geometry" />
        </mxCell>
        <mxCell id="Y47buEA7vqfz4hFLupwD-4" value="id: serial" style="text;html=1;align=center;verticalAlign=middle;resizable=0;points=[];autosize=1;strokeColor=none;fillColor=none;" vertex="1" parent="Y47buEA7vqfz4hFLupwD-2">
          <mxGeometry x="70" y="40" width="60" height="20" as="geometry" />
        </mxCell>
        <mxCell id="Y47buEA7vqfz4hFLupwD-3" value="person" style="swimlane;" vertex="1" parent="1">
          <mxGeometry x="370" y="120" width="200" height="150" as="geometry" />
        </mxCell>
        <mxCell id="Y47buEA7vqfz4hFLupwD-6" value="id: serial" style="text;html=1;align=center;verticalAlign=middle;resizable=0;points=[];autosize=1;strokeColor=none;fillColor=none;" vertex="1" parent="Y47buEA7vqfz4hFLupwD-3">
          <mxGeometry x="70" y="30" width="60" height="20" as="geometry" />
        </mxCell>
        <mxCell id="Y47buEA7vqfz4hFLupwD-7" value="name: varchar" style="text;html=1;align=center;verticalAlign=middle;resizable=0;points=[];autosize=1;strokeColor=none;fillColor=none;" vertex="1" parent="Y47buEA7vqfz4hFLupwD-3">
          <mxGeometry x="55" y="70" width="90" height="20" as="geometry" />
        </mxCell>
        <mxCell id="Y47buEA7vqfz4hFLupwD-8" value="adress_id: int" style="text;html=1;align=center;verticalAlign=middle;resizable=0;points=[];autosize=1;strokeColor=none;fillColor=none;" vertex="1" parent="Y47buEA7vqfz4hFLupwD-3">
          <mxGeometry x="55" y="110" width="90" height="20" as="geometry" />
        </mxCell>
        <mxCell id="Y47buEA7vqfz4hFLupwD-12" value="" style="endArrow=classic;html=1;rounded=0;" edge="1" parent="1">
          <mxGeometry relative="1" as="geometry">
            <mxPoint x="370" y="240" as="sourcePoint" />
            <mxPoint x="280" y="170" as="targetPoint" />
            <Array as="points">
              <mxPoint x="320" y="240" />
              <mxPoint x="320" y="170" />
            </Array>
          </mxGeometry>
        </mxCell>
        <mxCell id="Y47buEA7vqfz4hFLupwD-13" value="1" style="edgeLabel;resizable=0;html=1;align=center;verticalAlign=middle;" connectable="0" vertex="1" parent="Y47buEA7vqfz4hFLupwD-12">
          <mxGeometry relative="1" as="geometry" />
        </mxCell>
      </root>
    </mxGraphModel>
  </diagram>
</mxfile>
